<svg xmlns="http://www.w3.org/2000/svg" viewBox="0 0 465.41 465.41"><defs><style>.cls-1{fill:#f4c323;}.cls-2,.cls-3{fill:#323333;}.cls-2{stroke:#040000;stroke-linecap:round;stroke-linejoin:round;stroke-width:18px;}</style></defs><title>icon_BM</title><g id="レイヤー_1" data-name="レイヤー 1"><circle class="cls-1" cx="232.71" cy="232.71" r="232.71"/><path class="cls-2" d="M327.17,156.3" transform="translate(-24.57 -26.54)"/><path class="cls-3" d="M214.87,262.33a22,22,0,0,1-15.7-6.18,19.86,19.86,0,0,1-5.48-17.26c.94-6.66,4.83-13.58,11.24-20,8.87-8.87,15.19-15.67,20.77-21.68a362.28,362.28,0,0,1,34.22-33.28c26.23-22.53,47.77-18.17,65.07-14.66l3.42.68a6.45,6.45,0,0,1-2.48,12.65l-3.5-.7c-16.8-3.4-32.66-6.62-54.11,11.8A351.5,351.5,0,0,0,235.15,206c-5.65,6.09-12.06,13-21.1,22-5.59,5.59-7.21,10-7.59,12.68a7.17,7.17,0,0,0,1.83,6.33c3.28,3.28,11.58,4.22,19.75-3.95,20.12-20.12,28.22-26.43,28.56-26.69a6.45,6.45,0,0,1,5.94-1c15.08,4.91,35.8,4.2,40.85.07a6.45,6.45,0,0,1,8.17,10c-10.15,8.3-34.32,7.24-49.52,3.24-3.65,3.14-11.54,10.23-24.87,23.56-5.93,5.93-12.86,9.4-20,10Q216,262.33,214.87,262.33Z" transform="translate(-24.57 -26.54)"/><path class="cls-3" d="M343.6,357.2h-.53c-4.48-.11-11.24-1.64-18-8.37a6.45,6.45,0,0,1,9.12-9.12c6.5,6.5,12.49,5.13,15.64,2,5.26-5.26,2.53-12.7-2.52-17.74-22.89-22.89-94.8-90.84-95.53-91.52a6.45,6.45,0,0,1,8.86-9.37c.73.68,72.77,68.76,95.79,91.78,12.64,12.64,10.83,27.67,2.52,36A21.59,21.59,0,0,1,343.6,357.2Z" transform="translate(-24.57 -26.54)"/><path class="cls-3" d="M168.06,342.11h-5.5a20.69,20.69,0,0,1-20.66-20.66v-.55a20.69,20.69,0,0,1,20.66-20.66h5.5a20.69,20.69,0,0,1,20.66,20.66v.55A20.69,20.69,0,0,1,168.06,342.11Zm-5.5-29a7.78,7.78,0,0,0-7.77,7.77v.55a7.78,7.78,0,0,0,7.77,7.77h5.5a7.78,7.78,0,0,0,7.77-7.77v-.55a7.78,7.78,0,0,0-7.77-7.77Z" transform="translate(-24.57 -26.54)"/><path class="cls-3" d="M190.4,365.75h-5.5a20.69,20.69,0,0,1-20.66-20.66v-.55a20.69,20.69,0,0,1,20.66-20.66h5.5a20.69,20.69,0,0,1,20.66,20.66v.55A20.69,20.69,0,0,1,190.4,365.75Zm-5.5-29a7.78,7.78,0,0,0-7.77,7.77v.55a7.78,7.78,0,0,0,7.77,7.77h5.5a7.78,7.78,0,0,0,7.77-7.77v-.55a7.78,7.78,0,0,0-7.77-7.77Z" transform="translate(-24.57 -26.54)"/><path class="cls-3" d="M213.91,389.39h-5.5a20.69,20.69,0,0,1-20.66-20.66v-.55a20.69,20.69,0,0,1,20.66-20.66h5.5a20.69,20.69,0,0,1,20.66,20.66v.55A20.69,20.69,0,0,1,213.91,389.39Zm-5.5-29a7.78,7.78,0,0,0-7.77,7.77v.55a7.78,7.78,0,0,0,7.77,7.77h5.5a7.78,7.78,0,0,0,7.77-7.77v-.55a7.78,7.78,0,0,0-7.77-7.77Z" transform="translate(-24.57 -26.54)"/><path class="cls-3" d="M237.9,411.78h-5.5a20.69,20.69,0,0,1-20.66-20.66v-.55A20.69,20.69,0,0,1,232.4,369.9h5.5a20.69,20.69,0,0,1,20.66,20.66v.55A20.69,20.69,0,0,1,237.9,411.78Zm-5.5-29a7.78,7.78,0,0,0-7.77,7.77v.55a7.78,7.78,0,0,0,7.77,7.77h5.5a7.78,7.78,0,0,0,7.77-7.77v-.55a7.78,7.78,0,0,0-7.77-7.77Z" transform="translate(-24.57 -26.54)"/><path class="cls-3" d="M269.51,422.15c-7.6,0-15.54-3.71-22.49-10.66a6.45,6.45,0,1,1,9.12-9.12c5.42,5.42,11.22,7.81,15.9,6.56a8.92,8.92,0,0,0,6.36-6.39c1-3.77-.35-7.76-3.83-11.24l-42.23-42.23,9.12-9.12,42.23,42.23c6.78,6.78,9.39,15.41,7.17,23.7a22,22,0,0,1-15.48,15.51A22.58,22.58,0,0,1,269.51,422.15Z" transform="translate(-24.57 -26.54)"/><path class="cls-3" d="M294.9,402a23.85,23.85,0,0,1-17-7.32,6.45,6.45,0,0,1,9.12-9.12c4.13,4.13,8.43,3.76,10.63,3.17a10.58,10.58,0,0,0,7.48-7c1.09-4.08-1.44-7.7-3.76-10-38.51-38.51-43.85-44.56-44.06-44.8a6.45,6.45,0,1,1,9.71-8.49c.21.23,5.81,6.5,43.47,44.17,6.67,6.67,9.19,14.65,7.1,22.48A23.79,23.79,0,0,1,294.9,402Z" transform="translate(-24.57 -26.54)"/><path class="cls-3" d="M320.86,381.34A23.75,23.75,0,0,1,304.11,374a6.45,6.45,0,0,1,9.12-9.12c5.17,5.17,10.85,4.11,14.18.78a9.32,9.32,0,0,0,2.77-6.85c-.08-3.28-1.83-6.73-5.08-10l-44.31-44.31a6.45,6.45,0,0,1,9.12-9.12l44.31,44.31c7.12,7.12,8.75,14.16,8.85,18.8a22.4,22.4,0,0,1-21.83,22.83Z" transform="translate(-24.57 -26.54)"/><path class="cls-3" d="M148.34,316.14a6.43,6.43,0,0,1-4.49-1.82c-1.76-1.71-43.18-42-52.17-60a6.45,6.45,0,0,1,11.53-5.77c6.65,13.29,38.07,45.27,49.61,56.46a6.45,6.45,0,0,1-4.49,11.08Z" transform="translate(-24.57 -26.54)"/><path class="cls-3" d="M264.12,175.29a6.42,6.42,0,0,1-3.59-1.09C233.37,156,210.31,160.23,195,163l-1.77.32A6.45,6.45,0,0,1,191,150.67l1.74-.32c16.26-3,43.48-8,75,13.13a6.45,6.45,0,0,1-3.6,11.8Z" transform="translate(-24.57 -26.54)"/><path class="cls-3" d="M349.23,323.13a6.45,6.45,0,0,1-4.5-11.06l67.17-65.51a6.45,6.45,0,0,1,9,9.23L353.73,321.3A6.43,6.43,0,0,1,349.23,323.13Z" transform="translate(-24.57 -26.54)"/><rect class="cls-3" x="48.47" y="173.61" width="156.05" height="43.7" rx="5.67" ry="5.67" transform="translate(-125.73 120.16) rotate(-45)"/><rect class="cls-3" x="306.8" y="171.89" width="159.83" height="43.7" rx="5.67" ry="5.67" transform="translate(225.7 -243.24) rotate(45)"/></g></svg>