<svg id="Layer_1" data-name="Layer 1" xmlns="http://www.w3.org/2000/svg" viewBox="0 0 465.41 465.41"><defs><style>.cls-1{fill:#ed7d7e;}.cls-2{fill:#333;}</style></defs><title>icon_knowledge</title><circle class="cls-1" cx="232.71" cy="232.71" r="232.71"/><path class="cls-2" d="M426,202.26,272.66,131.67a37.69,37.69,0,0,0-31.49,0L87.81,202.26a7.18,7.18,0,0,0,0,13l153.36,70.59a37.64,37.64,0,0,0,31.5,0l121-55.71v56.1a9.62,9.62,0,0,0-1.64,18.79l-8.18,54h37.69l-8.18-54a9.62,9.62,0,0,0-1.64-18.79v-64.4L426,215.29a7.17,7.17,0,0,0,0-13Z" transform="translate(-25.21 -20.71)"/><path class="cls-2" d="M256.91,314.9A52.09,52.09,0,0,1,235,310.09l-75-34.53v68.8c0,15.1,45.64,34.26,96.93,34.26s96.93-19.16,96.93-34.26v-68.8l-75,34.53A52.05,52.05,0,0,1,256.91,314.9Z" transform="translate(-25.21 -20.71)"/></svg>