<svg id="Layer_1" data-name="Layer 1" xmlns="http://www.w3.org/2000/svg" viewBox="0 0 465.41 465.41"><defs><style>.cls-1{fill:#83d1b9;}.cls-2{fill:#333;}</style></defs><title>icon_EX</title><circle class="cls-1" cx="232.71" cy="232.71" r="232.71"/><path class="cls-2" d="M368.34,405.24H147.49a5.9,5.9,0,0,1-5.9-5.9V106.24a5.9,5.9,0,0,1,5.9-5.9H299.62v11.8H153.38V393.45H362.44V174.82h11.8V399.34A5.9,5.9,0,0,1,368.34,405.24Z" transform="translate(-25.21 -20.04)"/><polygon class="cls-2" points="266.55 319.17 310.74 319.17 199.25 182.37 155.05 182.37 266.55 319.17"/><path class="cls-2" d="M336,339.53h-44.2a.33.33,0,0,1-.25-.12L180,202.61a.33.33,0,0,1,.25-.53h44.2a.33.33,0,0,1,.25.12L336.21,339a.33.33,0,0,1-.25.53Zm-44-.66h43.35l-111-136.14H180.95Z" transform="translate(-25.21 -20.04)"/><polygon class="cls-2" points="199.25 319.17 155.05 319.17 266.55 182.37 310.74 182.37 199.25 319.17"/><path class="cls-2" d="M224.45,339.53h-44.2A.33.33,0,0,1,180,339L291.5,202.2a.33.33,0,0,1,.25-.12H336a.33.33,0,0,1,.25.53l-111.5,136.8A.33.33,0,0,1,224.45,339.53Zm-43.51-.66H224.3l111-136.14H291.91Z" transform="translate(-25.21 -20.04)"/><path class="cls-2" d="M367.82,180.22H299.64a5.9,5.9,0,0,1-5.9-5.9V106.14A5.9,5.9,0,0,1,303.81,102L372,170.15a5.9,5.9,0,0,1-4.17,10.07Zm-62.28-11.8h48l-48-48Z" transform="translate(-25.21 -20.04)"/></svg>